<?xml version="1.0" encoding="UTF-8" standalone="no"?>
<!-- Uploaded to: SVG Repo, www.svgrepo.com, Generator: SVG Repo Mixer Tools -->
<svg width="800px" height="800px" viewBox="-29 0 128 128" version="1.1" xmlns="http://www.w3.org/2000/svg" xmlns:xlink="http://www.w3.org/1999/xlink">
    
    <title>Apple Watch</title>
    <desc>Created with Sketch.</desc>
    <defs>
</defs>
    <g id="Page-1" stroke="none" stroke-width="1" fill="none" fill-rule="evenodd">
        <g id="Apple-Icons" transform="translate(-357.000000, -432.000000)" fill="#000000">
            <g id="128px" transform="translate(120.000000, 224.000000)">
                <path d="M303,298 C303,304.617 297.617,310 291,310 L251,310 C244.383,310 239,304.617 239,298 L239,246 C239,239.383 244.383,234 251,234 L291,234 C297.617,234 303,239.383 303,246 L303,298 Z M291,320 L291,327.402 C291,331.357 289.742,331.717 283.033,332.885 C282.892,332.901 282.712,332.932 282.403,332.985 C280.934,333.236 276.463,334 271,334 C268.377,334 264.227,333.818 259.352,332.95 C259.214,332.925 259.113,332.907 259.029,332.895 C252.113,331.54 251,331.047 251,327.402 L251,320 C251,317.506 250.784,314.667 249.581,312.283 L292.472,312.283 C291.205,314.766 291,317.682 291,320 L291,320 Z M251,224 L251,216.598 C251,212.953 252.113,212.46 259.029,211.105 C259.113,211.093 259.214,211.075 259.352,211.05 C264.227,210.182 268.377,210 271,210 C276.463,210 280.934,210.764 282.403,211.015 C282.712,211.068 282.892,211.099 283.033,211.115 C289.736,212.281 291,212.633 291,216.598 L291,224 C291,226.318 291.205,229.234 292.472,231.717 L249.581,231.717 C250.784,229.333 251,226.494 251,224 L251,224 Z M306.293,262 C306.683,262 307,261.683 307,261.293 L307,250.707 C307,250.317 306.683,250 306.293,250 L305,250 L305,246 C305,240.013 301.184,234.887 295.87,232.896 C293.772,231.043 293,228.007 293,224 L293,216.598 C293,210.804 289.793,210.261 283.293,209.13 C283.011,209.13 277.783,208 271,208 C264.217,208 258.848,209.13 258.707,209.13 C252.207,210.402 249,211.087 249,216.598 L249,224 C249,227.991 248.335,231.016 246.198,232.871 C240.849,234.844 237,239.987 237,246 L237,298 C237,304.013 240.849,309.156 246.198,311.129 C248.335,312.984 249,316.009 249,320 L249,327.402 C249,332.913 252.207,333.598 258.707,334.87 C258.848,334.87 264.217,336 271,336 C277.783,336 283.011,334.87 283.293,334.87 C289.793,333.739 293,333.196 293,327.402 L293,320 C293,315.993 293.772,312.957 295.87,311.104 C301.184,309.113 305,303.987 305,298 L305,290 L306,290 C306.552,290 307,289.552 307,289 L307,275 C307,274.448 306.552,274 306,274 L305,274 L305,262 L306.293,262 Z M300,298 C300,302.963 295.963,307 291,307 L251,307 C246.037,307 242,302.963 242,298 L242,246 C242,241.037 246.037,237 251,237 L291,237 C295.963,237 300,241.037 300,246 L300,298 Z M291,236 L251,236 C245.477,236 241,240.477 241,246 L241,298 C241,303.523 245.477,308 251,308 L291,308 C296.523,308 301,303.523 301,298 L301,246 C301,240.477 296.523,236 291,236 L291,236 Z" id="Apple-Watch">
</path>
            </g>
        </g>
    </g>
</svg>